<svg width="16" height="16" viewBox="0 0 16 16" fill="none" xmlns="http://www.w3.org/2000/svg">
<path d="M12.7797 8.219C12.9207 8.3597 13 8.55076 13 8.75C13 8.94924 12.9207 9.14029 12.7797 9.281L8.27966 13.781C8.13895 13.9221 7.9479 14.0013 7.74866 14.0013C7.54942 14.0013 7.35837 13.9221 7.21766 13.781L2.71766 9.281C2.4244 8.98773 2.4244 8.51226 2.71766 8.219C3.01092 7.92573 3.4864 7.92573 3.77966 8.219L7.74866 12.1895L11.7177 8.219C11.8584 8.07794 12.0494 7.99866 12.2487 7.99866C12.4479 7.99866 12.639 8.07794 12.7797 8.219Z" fill="#6878E1"/>
<path d="M7.75 2C8.16421 2 8.5 2.33579 8.5 2.75V12.5C8.5 12.9142 8.16421 13.25 7.75 13.25C7.33579 13.25 7 12.9142 7 12.5L7 2.75C7 2.33579 7.33579 2 7.75 2Z" fill="#6878E1"/>
</svg>
