<svg width="16" height="16" viewBox="0 0 16 16" fill="none" xmlns="http://www.w3.org/2000/svg">
<path d="M11.7138 5.46262C11.7122 5.48677 11.71 5.51063 11.7073 5.53419L12.1243 6.93956L12.1243 3.87543C11.8087 3.55987 11.4295 3.38931 11.0504 3.32012L11.4283 4.59389C11.6483 4.82113 11.7357 5.13326 11.7138 5.46262Z" fill="#6878E1"/>
<path d="M10.4288 1.2249L10.7259 2.22638C10.8478 2.2322 10.9708 2.24488 11.0942 2.26507L10.4288 1.2249Z" fill="#6878E1"/>
<path fill-rule="evenodd" clip-rule="evenodd" d="M10.4288 1.2249C11.4638 1.19151 12.6047 1.52745 13.5385 2.46121C14.4722 3.39497 14.8082 4.53592 14.7748 5.57092C14.742 6.58893 14.35 7.54221 13.7742 8.11807L9.06034 12.8319C8.86508 13.0272 8.54833 13.0274 8.35306 12.8321C8.1578 12.6368 8.15784 12.3202 8.35311 12.125L13.0671 7.41098C13.434 7.04401 13.7492 6.34736 13.7753 5.53868C13.8009 4.74699 13.5475 3.88447 12.8314 3.16832C12.3029 2.63985 11.6947 2.36341 11.0942 2.26507L10.4288 1.2249ZM11.7073 5.53419C11.6711 5.84949 11.541 6.1086 11.4172 6.23244L5.28893 12.3607C5.14157 12.5081 4.72288 12.7565 4.183 12.8056C3.67261 12.852 3.05578 12.7203 2.46049 12.125C1.8652 11.5297 1.73353 10.9129 1.77993 10.4025C1.82901 9.86263 2.07742 9.44394 2.22479 9.29658L8.58873 2.93262C8.9557 2.56566 9.65234 2.25047 10.461 2.22438C10.5486 2.22156 10.6369 2.22214 10.7259 2.22638L10.4288 1.2249C9.41077 1.25774 8.45749 1.64966 7.88163 2.22551L1.51768 8.58947C1.19365 8.91351 0.852807 9.55548 0.784036 10.312C0.712583 11.098 0.934464 12.0132 1.75339 12.8321C2.57231 13.651 3.48755 13.8729 4.27353 13.8015C5.03003 13.7327 5.672 13.3918 5.99604 13.0678L12.1243 6.93956C12.4626 6.60124 12.6758 6.0656 12.7116 5.52914C12.7482 4.98013 12.6032 4.35439 12.1243 3.87543L12.1243 6.93956L11.7073 5.53419ZM11.4283 4.59389L11.0504 3.32012C10.8541 3.28429 10.6579 3.27565 10.4706 3.28814C9.9341 3.3239 9.39846 3.53712 9.06015 3.87545L4.58188 8.35372C4.38661 8.54899 4.38657 8.86561 4.58183 9.06088C4.77709 9.25614 5.09386 9.25596 5.28912 9.06069L9.76728 4.58253C9.90037 4.44943 10.1897 4.30908 10.5371 4.28592C10.872 4.2636 11.189 4.3544 11.4172 4.58255L11.4283 4.59389Z" fill="#6878E1"/>
</svg>
