<svg width="16" height="16" viewBox="0 0 16 16" fill="none" xmlns="http://www.w3.org/2000/svg">
<path d="M8.219 3.22034C8.3597 3.07928 8.55076 3 8.75 3C8.94924 3 9.14029 3.07928 9.281 3.22034L13.781 7.72034C13.9221 7.86105 14.0013 8.0521 14.0013 8.25134C14.0013 8.45058 13.9221 8.64163 13.781 8.78234L9.281 13.2823C8.98773 13.5756 8.51226 13.5756 8.219 13.2823C7.92573 12.9891 7.92573 12.5136 8.219 12.2203L12.1895 8.25134L8.219 4.28234C8.07794 4.14163 7.99866 3.95058 7.99866 3.75134C7.99866 3.5521 8.07794 3.36105 8.219 3.22034Z" fill="white"/>
<path d="M2 8.25C2 7.83579 2.33579 7.5 2.75 7.5L12.5 7.5C12.9142 7.5 13.25 7.83579 13.25 8.25C13.25 8.66421 12.9142 9 12.5 9L2.75 9C2.33579 9 2 8.66421 2 8.25Z" fill="white"/>
</svg>
