<svg width="16" height="16" viewBox="0 0 16 16" fill="none" xmlns="http://www.w3.org/2000/svg">
<path d="M7.7821 3.22034C7.64139 3.07928 7.45034 3 7.2511 3C7.05186 3 6.86081 3.07928 6.7201 3.22034L2.2201 7.72034C2.07904 7.86105 1.99976 8.0521 1.99976 8.25134C1.99976 8.45058 2.07904 8.64163 2.2201 8.78234L6.7201 13.2823C7.01336 13.5756 7.48884 13.5756 7.7821 13.2823C8.07536 12.9891 8.07536 12.5136 7.7821 12.2203L3.8116 8.25134L7.7821 4.28234C7.92316 4.14163 8.00244 3.95058 8.00244 3.75134C8.00244 3.5521 7.92316 3.36105 7.7821 3.22034Z" fill="#6878E1"/>
<path d="M14.001 8.25C14.001 7.83579 13.6652 7.5 13.251 7.5H3.50098C3.08676 7.5 2.75098 7.83579 2.75098 8.25C2.75098 8.66421 3.08676 9 3.50098 9H13.251C13.6652 9 14.001 8.66421 14.001 8.25Z" fill="#6878E1"/>
</svg>
