<svg width="16" height="16" viewBox="0 0 16 16" fill="none" xmlns="http://www.w3.org/2000/svg">
<path d="M1.33203 8.00065C1.33203 4.31875 4.3168 1.33398 7.9987 1.33398C11.6806 1.33398 14.6654 4.31875 14.6654 8.00065C14.6654 11.6825 11.6806 14.6673 7.9987 14.6673C4.3168 14.6673 1.33203 11.6825 1.33203 8.00065Z" fill="#6878E1"/>
<path fill-rule="evenodd" clip-rule="evenodd" d="M7.2075 10.082C7.08017 10.082 6.9515 10.0334 6.85417 9.93538L5.2715 8.35338C5.07617 8.15805 5.07617 7.84205 5.2715 7.64671C5.46683 7.45138 5.78283 7.45138 5.97817 7.64671L7.2075 8.87471L10.0182 6.06471C10.2135 5.86938 10.5295 5.86938 10.7248 6.06471C10.9202 6.26005 10.9202 6.57605 10.7248 6.77138L7.56083 9.93538C7.4635 10.0334 7.3355 10.082 7.2075 10.082Z" fill="white"/>
</svg>
